<svg height="512" viewBox="0 0 58 58" width="512" xmlns="http://www.w3.org/2000/svg"><g id="012---Cake" fill="none"><path id="Shape" d="m53 29v27h-48v-26.76c-.01877176 1.0662486.2882295 2.1128438.88 3 1.89 2.66 5.12.76 5.12-3 0 2 1.11 4.22 3 4.22 1.66 0 3-1.88 3-4.22-.0187718 1.0662486.2882295 2.1128438.88 3 1.89 2.66 5.12.76 5.12-3 0 2 1.11 4.22 3 4.22 1.66 0 3-1.88 3-4.22-.0187718 1.0662486.2882295 2.1128438.88 3 1.89 2.66 5.12.76 5.12-3 0 2 1.11 4.22 3 4.22 1.66 0 3-1.88 3-4.22-.0187718 1.0662486.2882295 2.1128438.88 3 1.89 2.66 5.12.76 5.12-3 0 2.09 1.24 4.42 3.22 4.21 1.6-.15 2.78-2.2 2.78-4.45z" fill="#f0c419"/><path id="Shape" d="m50 29v27h-42v-26.76c-.01951579 1.0512514.24660742 2.0880951.77 3 1.66 2.67 4.48.73 4.48-3-.0195158 1.0512514.2466074 2.0880951.77 3 1.66 2.67 4.48.73 4.48-3-.0195158 1.0512514.2466074 2.0880951.77 3 1.66 2.67 4.48.73 4.48-3-.0195158 1.0512514.2466074 2.0880951.77 3 1.66 2.67 4.48.73 4.48-3-.0195158 1.0512514.2466074 2.0880951.77 3 1.66 2.67 4.48.73 4.48-3-.0195158 1.0512514.2466074 2.0880951.77 3 1.66 2.67 4.48.73 4.48-3-.0195158 1.0512514.2466074 2.0880951.77 3 1.66 2.67 4.48.73 4.48-3-.0195158 1.0512514.2466074 2.0880951.77 3 1.69 2.76 4.48.66 4.48-3.24z" fill="#f3d55b"/><g fill="#a56a43"><path id="Shape" d="m29 14c-.5522847 0-1-.4477153-1-1v-3c0-.55228475.4477153-1 1-1s1 .44771525 1 1v3c0 .5522847-.4477153 1-1 1z"/><path id="Shape" d="m18 14c-.5522847 0-1-.4477153-1-1v-3c0-.55228475.4477153-1 1-1s1 .44771525 1 1v3c0 .5522847-.4477153 1-1 1z"/><path id="Shape" d="m40 14c-.5522847 0-1-.4477153-1-1v-3c0-.55228475.4477153-1 1-1s1 .44771525 1 1v3c0 .5522847-.4477153 1-1 1z"/></g><rect id="Rectangle-path" fill="#2980ba" height="5" rx="2" width="58" y="53"/><rect id="Rectangle-path" fill="#3b97d3" height="5" rx="2" width="54" x="2" y="53"/><path id="Shape" d="m28 13h2c1.1045695 0 2 .8954305 2 2v7h-6v-7c0-1.1045695.8954305-2 2-2z" fill="#f9eab0"/><path id="Shape" d="m17 13h2c1.1045695 0 2 .8954305 2 2v7h-6v-7c0-1.1045695.8954305-2 2-2z" fill="#f9eab0"/><path id="Shape" d="m39 13h2c1.1045695 0 2 .8954305 2 2v7h-6v-7c0-1.1045695.8954305-2 2-2z" fill="#f9eab0"/><path id="Shape" d="m53 25v8.83c.0403444 1.6194238-1.1691655 2.9986132-2.78 3.17-.8330296.0612568-1.6538821-.2275584-2.2650218-.7969432-.6111397-.5693849-.9572274-1.367781-.9549782-2.2030568 0 1.6568542-1.3431458 3-3 3s-3-1.3431458-3-3c0 1.6568542-1.3431458 3-3 3s-3-1.3431458-3-3c0 1.6568542-1.3431458 3-3 3s-3-1.3431458-3-3c0 1.6568542-1.3431458 3-3 3s-3-1.3431458-3-3c0 1.6568542-1.3431458 3-3 3s-3-1.3431458-3-3c0 1.6568542-1.3431458 2.9999999-3 2.9999999s-3-1.3431457-3-2.9999999c0 1.6568542-1.34314575 3-3 3s-3-1.3431458-3-3v-9c0-1.6568542 1.34314575-3 3-3h42c1.6568542 0 3 1.3431458 3 3z" fill="#ff5364"/><path id="Shape" d="m11 27h-2c-.55228475 0-1-.4477153-1-1s.44771525-1 1-1h2c.5522847 0 1 .4477153 1 1s-.4477153 1-1 1z" fill="#fff"/><path id="Shape" d="m29 27h-14c-.5522847 0-1-.4477153-1-1s.4477153-1 1-1h14c.5522847 0 1 .4477153 1 1s-.4477153 1-1 1z" fill="#fff"/><path id="Shape" d="m32 7c0 1.65685425-1.3431458 3-3 3s-3-1.34314575-3-3c0-1.66 1.34-7 3-7s3 5.34 3 7z" fill="#f29c1f"/><path id="Shape" d="m21 7c0 1.65685425-1.3431458 3-3 3s-3-1.34314575-3-3c0-1.66 1.34-7 3-7s3 5.34 3 7z" fill="#f29c1f"/><path id="Shape" d="m43 7c0 1.65685425-1.3431458 3-3 3s-3-1.34314575-3-3c0-1.66 1.34-7 3-7s3 5.34 3 7z" fill="#f29c1f"/></g></svg>