<svg id="Layer_1" enable-background="new 0 0 256 256" height="512" viewBox="0 0 256 256" width="512" xmlns="http://www.w3.org/2000/svg"><path d="m162.747 4 .216 26.077h15.559l-19.838 19.838c-8.079-5.805-17.016-9.888-26.303-12.284-.106-.027-.212-.053-.318-.08-1.084-.275-2.172-.527-3.265-.756-.24-.05-.48-.1-.721-.148-1.009-.201-2.02-.382-3.035-.543-.261-.042-.52-.087-.782-.126-1.137-.17-2.277-.315-3.42-.436-.113-.012-.224-.028-.337-.04-2.639-.267-5.287-.399-7.937-.403-.03 0-.058-.002-.088-.002-.081 0-.161.006-.241.006-1.188.003-2.374.034-3.561.09-.213.01-.425.023-.637.035-1.107.061-2.211.146-3.315.253-.195.019-.39.037-.584.057-1.216.127-2.43.281-3.64.464-.034.005-.069.009-.103.014-16.1 2.46-31.584 9.862-43.959 22.237-8.315 8.316-14.371 18.041-18.211 28.408-.087.232-.177.462-.261.694-.27.749-.52 1.503-.766 2.259-.191.578-.383 1.156-.56 1.74-.125.415-.238.833-.356 1.25-.261.912-.513 1.827-.741 2.752-.018.075-.034.151-.052.227-1.468 6.02-2.264 12.3-2.264 18.766 0 11.827 2.62 23.048 7.286 33.136.047.103.093.206.141.308.457.977.934 1.941 1.429 2.896.11.213.215.428.327.641.455.858.931 1.703 1.416 2.543.157.272.303.548.463.818.601 1.011 1.222 2.008 1.866 2.989.395.603.815 1.194 1.228 1.788.278.4.55.805.835 1.2.433.599.885 1.187 1.336 1.777.295.385.588.771.89 1.15.451.567.914 1.126 1.383 1.683.335.399.674.794 1.017 1.185.46.526.925 1.048 1.402 1.564.389.421.787.834 1.185 1.247.339.352.661.714 1.008 1.061.127.127.26.242.387.368.459.453.932.891 1.402 1.333.718.675 1.443 1.335 2.179 1.978.59.515 1.178 1.032 1.783 1.53.448.368.905.717 1.359 1.074.536.422 1.072.844 1.619 1.253.431.321.868.631 1.304.942.612.438 1.229.87 1.854 1.291.369.247.739.491 1.111.732.768.499 1.546.983 2.332 1.455.23.138.46.278.691.414 8.23 4.835 17.397 8.241 27.167 9.841v13.121h-20.631v25.704h20.631v20.629h25.704v-20.63h20.63v-25.704h-20.63v-13.121c9.771-1.6 18.937-5.007 27.168-9.841.232-.135.461-.276.691-.414.786-.472 1.564-.956 2.332-1.455.372-.241.742-.484 1.111-.732.625-.421 1.242-.853 1.854-1.291.436-.311.873-.621 1.304-.942.547-.408 1.083-.831 1.619-1.253.454-.357.911-.705 1.359-1.074.605-.498 1.193-1.015 1.783-1.53.736-.643 1.462-1.303 2.179-1.978.47-.442.943-.88 1.402-1.333.127-.126.26-.241.387-.368.427-.427.829-.868 1.244-1.303.26-.272.523-.539.778-.815.554-.596 1.091-1.202 1.623-1.811.228-.261.458-.52.683-.784.537-.63 1.058-1.269 1.571-1.912.208-.261.417-.52.622-.783.501-.644.989-1.295 1.468-1.951.212-.291.424-.582.633-.876.443-.625.875-1.254 1.297-1.889.242-.362.48-.726.716-1.092.362-.564.717-1.131 1.063-1.702.292-.48.578-.964.861-1.45.264-.457.525-.915.779-1.376.356-.643.701-1.292 1.04-1.946.156-.303.313-.606.465-.911.425-.848.834-1.705 1.229-2.57.048-.106.097-.211.145-.317 4.482-9.923 6.995-20.919 6.995-32.497 0-7.315-1.017-14.394-2.881-21.124-.005-.017-.009-.033-.014-.049-.293-1.055-.601-2.104-.936-3.142-.094-.293-.199-.583-.296-.874-.263-.781-.522-1.563-.808-2.333-2.417-6.568-5.727-12.878-9.937-18.738l19.838-19.837-.131 15.558h25.704l.503-59.81zm-4.168 137.55c-.412.697-.844 1.386-1.29 2.067-.043.066-.084.133-.128.199-.459.694-.937 1.379-1.431 2.056-.028.038-.054.077-.082.115-1.586 2.158-3.354 4.223-5.304 6.173-20.879 20.878-54.851 20.878-75.73 0-1.952-1.952-3.721-4.019-5.308-6.178-.021-.029-.041-.059-.062-.087-.502-.686-.986-1.381-1.451-2.084-.038-.057-.073-.116-.111-.173-.453-.691-.891-1.389-1.309-2.096-.019-.031-.036-.064-.055-.095-7.069-12.024-9.04-26.236-5.926-39.486.045-.188.084-.379.131-.566.118-.478.253-.951.384-1.426.122-.437.239-.875.372-1.307.07-.231.149-.46.222-.69 6.937-21.538 27.162-37.169 50.977-37.169 23.83 0 44.066 15.65 50.991 37.209.067.211.139.42.203.632.139.453.263.912.39 1.37.125.454.255.907.367 1.363.053.211.097.424.147.636 3.096 13.226 1.126 27.406-5.924 39.41-.024.041-.047.084-.073.127z" fill="#fcc24c"/><path d="m188.837 93.177c-.293-1.055-.601-2.104-.936-3.142-.094-.293-.199-.582-.296-.874-.263-.781-.522-1.563-.808-2.333-2.417-6.568-5.727-12.878-9.937-18.738l19.838-19.837-.783-.851c-1.925-2.093-5.205-2.161-7.216-.151l-17.92 17.919c-1.671 1.671-1.926 4.273-.647 6.261 3.147 4.894 5.701 10.061 7.665 15.397.286.77.545 1.552.808 2.333.097.292.203.581.297.874.335 1.038.643 2.086.936 3.142.005.017.009.033.014.049 1.864 6.73 2.881 13.809 2.881 21.124 0 11.578-2.513 22.575-6.995 32.497-.048.106-.096.212-.145.317-.395.865-.804 1.722-1.229 2.57-.152.305-.309.608-.465.911-.339.654-.684 1.303-1.04 1.946-.254.461-.515.919-.779 1.376-.282.486-.568.97-.861 1.45-.346.571-.701 1.138-1.063 1.702-.236.366-.475.73-.716 1.092-.423.634-.854 1.264-1.297 1.889-.209.294-.42.584-.633.875-.479.656-.966 1.307-1.468 1.951-.205.263-.414.523-.622.783-.514.643-1.035 1.282-1.571 1.913-.225.264-.455.523-.683.784-.532.609-1.069 1.215-1.623 1.811-.256.275-.519.543-.778.815-.415.434-.818.876-1.245 1.303-.127.127-.26.242-.387.368-.504.498-1.026.977-1.542 1.464-.667.63-1.349 1.243-2.04 1.847-.59.515-1.178 1.032-1.783 1.53-.448.368-.905.717-1.359 1.073-.536.422-1.072.844-1.619 1.253-.431.321-.868.631-1.304.942-.612.438-1.229.87-1.854 1.291-.369.248-.739.491-1.111.732-.768.499-1.546.983-2.332 1.455-.23.138-.46.278-.691.414-5.85 3.437-11.581 6.688-18.168 8.628v1.213c9.771-1.6 18.937-5.007 27.168-9.842.232-.135.461-.276.691-.414.786-.473 1.564-.956 2.332-1.455.372-.241.742-.484 1.111-.732.625-.421 1.242-.853 1.854-1.291.436-.311.873-.621 1.304-.942.547-.409 1.083-.831 1.619-1.253.454-.357.911-.705 1.359-1.073.605-.498 1.193-1.015 1.783-1.53.691-.603 1.373-1.217 2.04-1.847.515-.487 1.037-.966 1.542-1.464.127-.125.26-.241.387-.368.427-.427.829-.868 1.245-1.303.259-.271.522-.54.778-.815.554-.596 1.091-1.202 1.623-1.811.228-.261.458-.52.683-.784.537-.63 1.058-1.269 1.571-1.913.208-.26.417-.52.622-.783.501-.644.989-1.295 1.468-1.951.212-.291.424-.582.633-.875.443-.625.875-1.254 1.297-1.889.242-.362.48-.726.716-1.092.362-.564.717-1.131 1.063-1.702.292-.48.578-.964.861-1.45.264-.457.525-.915.779-1.376.356-.643.701-1.292 1.04-1.946.156-.303.313-.607.465-.911.425-.848.834-1.705 1.229-2.57.048-.106.097-.211.145-.317 4.482-9.923 6.995-20.919 6.995-32.497 0-7.315-1.017-14.394-2.881-21.124-.006-.015-.011-.031-.015-.048z" fill="#dea42e"/><g fill="#fce06a"><path d="m112.567 35.1c-.03 0-.058-.002-.088-.002-.081 0-.161.006-.241.006-1.188.003-2.374.034-3.561.09-.213.01-.425.023-.637.035-1.107.061-2.211.146-3.315.253-.195.019-.39.037-.584.057-1.216.128-2.43.281-3.64.464-.034.005-.069.009-.103.014-16.1 2.46-31.584 9.862-43.959 22.237-8.315 8.315-14.371 18.041-18.211 28.408-.087.232-.177.461-.261.694-.27.75-.52 1.504-.766 2.259-.191.578-.383 1.156-.56 1.74-.125.415-.238.833-.356 1.25-.261.912-.513 1.827-.741 2.752-.018.075-.034.151-.052.227-1.468 6.02-2.264 12.3-2.264 18.766 0 11.827 2.62 23.048 7.286 33.136.047.103.093.206.141.308.457.977.934 1.941 1.429 2.896.11.213.215.428.327.641.455.858.931 1.703 1.416 2.543.157.272.303.548.463.818.6 1.011 1.222 2.008 1.866 2.989.395.603.815 1.194 1.228 1.788.278.4.55.805.835 1.2.433.599.885 1.187 1.336 1.777.295.385.588.771.89 1.15.451.567.914 1.126 1.383 1.683.335.399.674.794 1.017 1.186.46.525.925 1.048 1.402 1.564.389.421.787.834 1.185 1.247.339.352.661.714 1.008 1.061.127.127.26.242.387.368.459.453.932.891 1.402 1.333.718.675 1.443 1.335 2.179 1.978.59.515 1.178 1.032 1.783 1.53.448.368.905.717 1.359 1.073.536.422 1.072.844 1.619 1.253.431.321.868.631 1.304.942.612.438 1.229.87 1.854 1.291.369.248.739.491 1.111.732.768.499 1.546.983 2.332 1.455.23.138.46.278.691.414 8.23 4.835 17.397 8.241 27.167 9.842v-.69c-7.653-1.871-14.534-5.254-21.167-9.151-.232-.135-.461-.276-.691-.414-.786-.473-1.564-.956-2.332-1.455-.372-.241-.742-.484-1.111-.732-.625-.421-1.242-.853-1.854-1.291-.436-.311-.873-.621-1.304-.942-.547-.409-1.083-.831-1.619-1.253-.454-.357-.911-.705-1.359-1.073-.605-.498-1.193-1.015-1.783-1.53-.736-.643-1.462-1.303-2.179-1.978-.47-.442-.943-.879-1.402-1.333-.127-.125-.26-.241-.387-.368-.347-.347-.669-.709-1.008-1.061-.398-.413-.796-.825-1.185-1.247-.477-.516-.941-1.039-1.402-1.564-.343-.392-.682-.787-1.017-1.186-.469-.557-.932-1.117-1.383-1.683-.302-.379-.595-.765-.89-1.15-.451-.589-.903-1.178-1.336-1.777-.285-.395-.557-.8-.835-1.2-.413-.594-.834-1.185-1.228-1.788-.644-.981-1.265-1.979-1.866-2.989-.16-.27-.307-.546-.463-.818-.485-.839-.961-1.685-1.416-2.543-.112-.212-.217-.427-.327-.641-.495-.955-.972-1.919-1.429-2.896-.048-.102-.093-.206-.141-.308-4.666-10.088-7.286-21.309-7.286-33.136 0-6.465.796-12.746 2.264-18.766.018-.076.034-.151.052-.227.228-.925.481-1.84.741-2.752.118-.417.231-.834.356-1.25.178-.584.37-1.162.56-1.74.246-.756.497-1.51.766-2.259.085-.233.175-.462.261-.694 3.84-10.367 9.896-20.093 18.211-28.408 12.376-12.375 27.859-19.777 43.959-22.237.034-.005.069-.009.103-.014 1.21-.183 2.424-.337 3.64-.464.194-.02.389-.038.584-.057 1.104-.107 2.208-.192 3.315-.253.212-.012.424-.025.637-.035.259-.013.518-.01.777-.02-.962-.036-1.924-.074-2.887-.075z"/><path d="m168.962 30.077-.215-26.077h54.026.001-60.027l.216 26.077z"/><path d="m78.996 205.666h6v25.704h-6z"/><path d="m99.627 231.37v20.63h6v-15.63c0-2.761-2.239-5-5-5z"/></g><path d="m139.961 205.666h6v25.704h-6z" fill="#dea42e"/><path d="m215.773 4-.503 59.811h7l.504-59.811z" fill="#dea42e"/><path d="m119.331 252h6v-20.63h-1c-2.761 0-5 2.239-5 5z" fill="#dea42e"/><path d="m125.331 254h-25.704c-1.105 0-2-.895-2-2v-18.63h-18.631c-1.104 0-2-.896-2-2v-25.704c0-1.105.896-2 2-2h18.631v-9.44c-9.217-1.71-18.016-5.002-26.181-9.798l-.706-.423c-.808-.486-1.605-.982-2.392-1.493-.379-.245-.758-.495-1.136-.748-.644-.434-1.276-.877-1.904-1.326l-.144-.103c-.399-.285-.797-.569-1.191-.863-.542-.404-1.072-.821-1.602-1.238l-.455-.356c-.335-.261-.668-.521-.997-.792-.562-.462-1.11-.94-1.658-1.419l-.169-.148c-.755-.659-1.499-1.335-2.234-2.027l-.292-.274c-.385-.361-.77-.722-1.145-1.092l-.138-.13c-.087-.081-.173-.162-.258-.247-.221-.221-.432-.446-.643-.672l-.48-.507c-.378-.393-.756-.786-1.126-1.187-.488-.528-.964-1.064-1.436-1.603-.351-.401-.699-.806-1.043-1.214-.481-.572-.956-1.145-1.418-1.726-.273-.343-.539-.69-.805-1.039l-.188-.246c-.436-.569-.871-1.138-1.289-1.716-.2-.277-.395-.56-.59-.843l-.552-.796c-.331-.473-.66-.945-.975-1.425-.651-.993-1.294-2.024-1.912-3.063-.104-.175-.202-.352-.3-.528l-.177-.315c-.495-.856-.983-1.723-1.449-2.603l-.336-.659c-.512-.988-1.005-1.986-1.463-2.965l-.145-.317c-4.957-10.719-7.471-22.149-7.471-33.975 0-6.45.781-12.923 2.321-19.24l.05-.22c.237-.961.496-1.899.764-2.835l.095-.341c.087-.312.174-.624.268-.936.161-.532.333-1.054.505-1.577l.07-.212c.251-.77.508-1.543.784-2.311l.269-.716c4.08-11.015 10.362-20.814 18.671-29.124 12.29-12.289 27.875-20.173 45.071-22.8.006-.001.095-.014.1-.014 1.224-.185 2.48-.345 3.738-.477l.597-.059c1.13-.11 2.274-.197 3.399-.259l.655-.036c1.229-.058 2.457-.089 3.647-.093l.247-.006c.022 0 .088.001.11.002 2.711.004 5.448.143 8.116.413l.342.04c1.164.123 2.344.273 3.509.447l.804.129c1.037.165 2.074.35 3.108.556l.74.152c1.108.232 2.235.492 3.346.774l.329.083c9.214 2.377 17.811 6.283 25.575 11.618l15.235-15.235h-10.73c-1.098 0-1.991-.885-2-1.983l-.216-26.077c-.004-.533.204-1.046.58-1.425.376-.375.888-.588 1.421-.588h60.026c.533 0 1.045.213 1.42.592.376.379.585.892.58 1.425l-.504 59.811c-.01 1.098-.902 1.983-2 1.983h-25.703c-.533 0-1.045-.213-1.42-.592-.376-.378-.584-.892-.58-1.425l.089-10.672-15.193 15.194c3.793 5.523 6.889 11.51 9.211 17.821.264.71.508 1.436.752 2.161l.196.58c.062.182.125.365.185.549.31.958.624 2.012.958 3.216 1.974 7.125 2.968 14.411 2.968 21.708 0 11.574-2.413 22.785-7.173 33.32l-.137.302c-.415.909-.835 1.788-1.27 2.658-.155.311-.316.621-.475.932-.351.675-.704 1.341-1.069 2-.257.467-.524.936-.795 1.405-.292.503-.586 1-.887 1.493-.351.579-.715 1.161-1.086 1.739-.245.381-.49.754-.738 1.125-.431.647-.873 1.292-1.326 1.932-.217.304-.433.601-.648.897-.494.675-.993 1.342-1.506 2.002-.169.216-.339.428-.508.641l-.13.162c-.529.662-1.062 1.316-1.613 1.962-.157.185-.318.369-.48.553l-.218.248c-.548.626-1.098 1.248-1.665 1.858-.185.198-.371.391-.557.585l-.652.686c-.285.303-.569.605-.865.9-.084.085-.168.162-.251.24l-.144.136c-.369.364-.745.717-1.122 1.071l-.315.296c-.737.692-1.48 1.369-2.235 2.028l-.167.146c-.549.479-1.099.959-1.662 1.422-.334.275-.675.54-1.016.807l-.455.356c-.523.412-1.047.823-1.581 1.222-.395.294-.794.579-1.194.865l-.143.102c-.626.448-1.259.891-1.899 1.322-.379.255-.759.504-1.139.751-.788.511-1.585 1.007-2.391 1.491l-.713.426c-8.16 4.794-16.96 8.086-26.176 9.796v9.44h18.63c1.105 0 2 .895 2 2v25.704c0 1.104-.895 2-2 2h-18.63v18.628c0 1.105-.896 2-2 2zm-23.704-4h21.704v-18.63c0-1.105.896-2 2-2h18.63v-21.704h-18.63c-1.104 0-2-.896-2-2v-13.121c0-.98.71-1.815 1.677-1.974 9.337-1.53 18.247-4.757 26.478-9.593l.676-.404c.765-.46 1.522-.932 2.271-1.418.362-.235.725-.473 1.083-.714.608-.41 1.21-.831 1.807-1.258l.146-.104c.377-.269.753-.538 1.125-.815.508-.378 1.003-.769 1.499-1.159l.47-.367c.313-.244.626-.488.934-.741.534-.439 1.052-.892 1.57-1.345l.169-.147c.718-.627 1.426-1.271 2.126-1.929l.319-.3c.352-.33.704-.66 1.047-.999l.381-.361c.264-.264.52-.537.776-.809l.687-.722c.17-.176.34-.353.507-.532.538-.58 1.062-1.171 1.582-1.765l.224-.256c.147-.168.295-.337.44-.507.524-.616 1.032-1.239 1.534-1.866l.606-.764c.487-.627.963-1.262 1.431-1.902.205-.282.413-.567.618-.855.428-.605.849-1.219 1.262-1.838.238-.356.47-.71.7-1.067.349-.544.695-1.097 1.032-1.653.289-.473.567-.944.843-1.418.254-.441.508-.887.756-1.337.351-.632.687-1.265 1.017-1.902.15-.292.303-.588.451-.885.415-.828.813-1.663 1.198-2.506l.135-.296c4.53-10.029 6.824-20.686 6.824-31.688 0-6.936-.945-13.863-2.809-20.59-.006-.021-.025-.09-.029-.111-.303-1.085-.601-2.086-.896-2.997-.052-.162-.105-.315-.158-.47l-.207-.611c-.23-.686-.461-1.371-.712-2.047-2.396-6.513-5.654-12.657-9.686-18.268-.572-.796-.483-1.888.21-2.581l19.837-19.837c.575-.575 1.439-.744 2.188-.431.748.314 1.233 1.049 1.227 1.861l-.113 13.542h21.703l.47-55.809h-55.993l.183 22.077h13.575c.809 0 1.538.487 1.848 1.235.31.747.139 1.607-.434 2.179l-19.838 19.838c-.692.692-1.786.782-2.581.21-7.722-5.547-16.347-9.575-25.636-11.972l-.316-.08c-1.051-.267-2.121-.514-3.176-.735l-.705-.145c-.981-.196-1.967-.371-2.956-.529l-.763-.123c-1.108-.166-2.23-.309-3.334-.425l-.325-.038c-2.54-.257-5.144-.389-7.742-.393-.022 0-.087-.002-.108-.002l-.219.006c-1.125.003-2.293.033-3.466.088l-.621.034c-1.07.059-2.157.142-3.231.247l-.568.055c-1.199.125-2.394.277-3.552.453l-.401-1.963.302 1.977c-16.348 2.497-31.165 9.992-42.848 21.674-7.898 7.899-13.871 17.214-17.75 27.688l-.257.683c-.261.725-.504 1.459-.745 2.196l-.072.219c-.162.492-.325.984-.476 1.481-.084.28-.164.566-.244.853l-.101.359c-.256.896-.502 1.787-.725 2.689l-.049.211c-1.467 6.017-2.209 12.171-2.209 18.302 0 11.241 2.389 22.107 7.101 32.296l.138.302c.444.95.91 1.89 1.392 2.821l.318.624c.443.837.907 1.661 1.38 2.479l.206.367c.081.145.161.289.245.431.586.987 1.198 1.968 1.818 2.913.293.448.6.887.907 1.326l.57.821c.176.256.352.513.535.765.397.55.811 1.089 1.224 1.628l.189.248c.251.328.502.656.759.979.439.552.892 1.098 1.349 1.642.326.387.656.772.99 1.153.45.514.903 1.023 1.367 1.525.352.381.71.753 1.069 1.126l.088.091c.145.15.289.305.434.46.18.193.36.386.548.575l.376.355c.352.348.712.685 1.072 1.022l.298.279c.699.657 1.406 1.301 2.124 1.928l.17.149c.518.453 1.036.905 1.567 1.343.302.248.608.486.914.725l.411.321c.562.442 1.065.838 1.578 1.222.371.276.747.544 1.123.812l.146.104c.599.428 1.2.85 1.81 1.26.357.239.718.477 1.08.712.751.488 1.509.959 2.276 1.42l.669.401c8.235 4.837 17.144 8.065 26.481 9.595.967.158 1.677.994 1.677 1.974v13.121c0 1.104-.896 2-2 2h-18.627v21.704h18.631c1.104 0 2 .895 2 2zm10.852-80.183c-14.227 0-28.449-5.414-39.279-16.244-1.993-1.992-3.845-4.148-5.506-6.408-.005-.007-.063-.089-.068-.096-.517-.705-1.019-1.426-1.501-2.157l-.08-.123c-.505-.772-.96-1.498-1.393-2.231-.002-.004-.052-.09-.054-.094-7.271-12.367-9.455-26.913-6.151-40.962l.138-.593c.096-.39.205-.785.315-1.18l.167-.601c.098-.354.196-.707.303-1.056.045-.149.096-.305.147-.462l.081-.247c7.43-23.068 28.681-38.562 52.883-38.562 24.223 0 45.48 15.511 52.895 38.598l.212.66c.116.377.224.766.331 1.155l.154.559c.104.374.208.749.301 1.125.034.137.067.283.101.43l.052.226c3.282 14.024 1.1 28.542-6.146 40.88l-.077.134c-.428.723-.875 1.437-1.338 2.145l-.142.219c-.468.708-.964 1.419-1.478 2.122l-.078.11c-1.666 2.267-3.518 4.421-5.508 6.411-10.83 10.826-25.058 16.242-39.281 16.242zm0-107.016c-22.459 0-42.18 14.38-49.073 35.783l-.211.655c-.099.322-.187.639-.274.956l-.168.606c-.099.356-.198.711-.286 1.069l-.128.553c-3.064 13.037-1.039 26.538 5.705 38.008.001.003.056.097.057.1.397.672.818 1.344 1.254 2.009.006.008.063.098.068.107.486.738.952 1.406 1.435 2.066.004.006.062.087.066.094 1.535 2.088 3.254 4.09 5.104 5.939 20.1 20.099 52.802 20.098 72.902.001 1.849-1.848 3.566-3.847 5.107-5.943.003-.005.075-.106.078-.111.477-.651.936-1.311 1.378-1.979l.055-.086c.005-.007.061-.095.065-.102.432-.66.848-1.322 1.244-1.993.002-.002.003-.005.005-.007.002-.003.072-.126.074-.129 6.716-11.435 8.74-24.91 5.693-37.928l-.141-.606c-.085-.347-.179-.683-.271-1.019l-.157-.566c-.096-.35-.192-.7-.299-1.045l-.199-.619c-6.878-21.417-26.605-35.813-49.083-35.813z" fill="#690589"/><path d="m41.089 117.299c-1.104 0-2-.896-2-2 0-4.079.297-8.212.884-12.285.157-1.093 1.169-1.854 2.265-1.694 1.093.157 1.852 1.171 1.694 2.265-.56 3.884-.843 7.826-.843 11.715 0 1.104-.895 1.999-2 1.999z" fill="#690589"/></svg>