<svg height="512pt" viewBox="0 0 512 512.01281" width="512pt" xmlns="http://www.w3.org/2000/svg"><path d="m467.867188 167.738281s44.140624-17.65625 44.140624-44.140625c0-14.625-11.859374-26.480468-26.484374-26.480468-6.941407.011718-13.480469 3.28125-17.65625 8.828124-4.175782-5.546874-10.710938-8.816406-17.652344-8.828124-14.628906 0-26.484375 11.855468-26.484375 26.480468 0 26.484375 44.136719 44.140625 44.136719 44.140625zm0 0" fill="#ff6c77"/><path d="m44.144531 167.738281s-44.1367185-17.65625-44.1367185-44.140625c0-14.625 11.8554685-26.480468 26.4804685-26.480468 6.945313.011718 13.480469 3.28125 17.65625 8.828124 4.175781-5.546874 10.710938-8.816406 17.65625-8.828124 14.625 0 26.480469 11.855468 26.480469 26.480468 0 26.484375-44.136719 44.140625-44.136719 44.140625zm0 0" fill="#ff6c77"/><path d="m256.007812 176.566406s114.757813-44.140625 114.757813-110.347656c-.742187-37.289062-31.5625-66.925781-68.855469-66.2070312-17.871094-.0507813-34.785156 8.0781252-45.902344 22.0703122-11.121093-13.992187-28.035156-22.1210935-45.90625-22.0703122-37.289062-.7187498-68.109374 28.9179692-68.855468 66.2070312 0 66.207031 114.761718 110.347656 114.761718 110.347656zm0 0" fill="#ff6c77"/><g fill="#fe9189"><path d="m406.074219 44.152344c-3.058594-.003906-5.898438-1.585938-7.503907-4.1875-1.609374-2.605469-1.753906-5.851563-.386718-8.585938l8.828125-17.65625c2.179687-4.363281 7.484375-6.132812 11.847656-3.957031 4.363281 2.179687 6.132813 7.484375 3.953125 11.847656l-8.828125 17.65625c-1.496094 2.996094-4.558594 4.886719-7.910156 4.882813zm0 0"/><path d="m432.558594 61.804688c-3.570313 0-6.789063-2.148438-8.15625-5.449219-1.363282-3.296875-.609375-7.09375 1.914062-9.617188l8.828125-8.828125c2.214844-2.296875 5.5-3.214844 8.585938-2.40625 3.085937.804688 5.496093 3.214844 6.304687 6.304688.808594 3.085937-.113281 6.367187-2.410156 8.582031l-8.824219 8.828125c-1.65625 1.65625-3.902343 2.585938-6.242187 2.585938zm0 0"/><path d="m105.9375 44.152344c-3.363281.015625-6.441406-1.875-7.945312-4.882813l-8.828126-17.65625c-2.179687-4.363281-.40625-9.667969 3.957032-11.847656 4.363281-2.175781 9.667968-.40625 11.84375 3.957031l8.828125 17.65625c1.367187 2.726563 1.222656 5.96875-.375 8.570313-1.601563 2.597656-4.429688 4.1875-7.480469 4.203125zm0 0"/><path d="m79.453125 61.804688c-2.339844 0-4.585937-.929688-6.238281-2.585938l-8.828125-8.828125c-3.347657-3.460937-3.296875-8.96875.105469-12.375 3.40625-3.402344 8.914062-3.453125 12.375-.105469l8.828124 8.828125c2.523438 2.523438 3.277344 6.320313 1.914063 9.617188-1.367187 3.300781-4.585937 5.449219-8.15625 5.449219zm0 0"/></g><path d="m19.71875 307.972656c-11.234375 34.625-17.863281 70.582032-19.7109375 106.9375 0 88.273438 8.8281255 97.101563 44.1367185 97.101563 84.746094 0 61.933594-87.390625 101.683594-109.636719l65.835937-5.121094h88.683594l65.835938 5.121094c39.75 22.246094 16.941406 109.636719 101.683594 109.636719 35.3125 0 44.140624-8.828125 44.140624-97.101563-1.851562-36.355468-8.476562-72.3125-19.714843-106.9375l-33.003907-77.558594c-13.367187-21.789062-28.496093-36.195312-44.386718-36.195312-35.308594 0-26.480469 17.65625-97.101563 17.65625h-123.585937c-70.621094 0-61.792969-17.65625-97.105469-17.65625-15.890625 0-31.019531 14.40625-44.382813 36.195312zm0 0" fill="#586270"/><path d="m220.695312 370.769531c0 24.378907-19.761718 44.140625-44.136718 44.140625-24.378906 0-44.136719-19.761718-44.136719-44.140625 0-24.375 19.757813-44.136719 44.136719-44.136719 24.375 0 44.136718 19.761719 44.136718 44.136719zm0 0" fill="#3a3e48"/><path d="m379.59375 370.769531c0 24.378907-19.761719 44.140625-44.140625 44.140625-24.375 0-44.136719-19.761718-44.136719-44.140625 0-24.375 19.761719-44.136719 44.136719-44.136719 24.378906 0 44.140625 19.761719 44.140625 44.136719zm0 0" fill="#3a3e48"/><path d="m211.867188 370.769531c0 19.503907-15.808594 35.3125-35.308594 35.3125s-35.3125-15.808593-35.3125-35.3125c0-19.5 15.8125-35.308593 35.3125-35.308593s35.308594 15.808593 35.308594 35.308593zm0 0" fill="#586270"/><path d="m370.765625 370.769531c0 19.503907-15.808594 35.3125-35.3125 35.3125-19.5 0-35.308594-15.808593-35.308594-35.3125 0-19.5 15.808594-35.308593 35.308594-35.308593 19.503906 0 35.3125 15.808593 35.3125 35.308593zm0 0" fill="#586270"/><path d="m158.902344 291.324219c.105468 37.359375-28.910156 68.339843-66.199219 70.679687-37.289063 2.335938-69.945313-24.773437-74.511719-61.851562-.707031-5.867188-.707031-11.792969 0-17.65625 4.566406-37.082032 37.222656-64.191406 74.511719-61.851563 37.289063 2.339844 66.304687 33.316407 66.199219 70.679688zm0 0" fill="#3a3e48"/><path d="m494.351562 291.324219c0 39-31.617187 70.621093-70.621093 70.621093-39.003907 0-70.621094-31.621093-70.621094-70.621093 0-39.003907 31.617187-70.621094 70.621094-70.621094 39.003906 0 70.621093 31.617187 70.621093 70.621094zm0 0" fill="#3a3e48"/><path d="m397.246094 291.324219c0 12.1875-9.878906 22.066406-22.066406 22.066406s-22.070313-9.878906-22.070313-22.066406 9.882813-22.070313 22.070313-22.070313 22.066406 9.882813 22.066406 22.070313zm0 0" fill="#ff6c77"/><path d="m445.800781 242.769531c0 12.191407-9.882812 22.070313-22.070312 22.070313s-22.070313-9.878906-22.070313-22.070313c0-12.1875 9.882813-22.066406 22.070313-22.066406s22.070312 9.878906 22.070312 22.066406zm0 0" fill="#5dc382"/><path d="m494.351562 291.324219c0 12.1875-9.882812 22.066406-22.070312 22.066406s-22.066406-9.878906-22.066406-22.066406 9.878906-22.070313 22.066406-22.070313 22.070312 9.882813 22.070312 22.070313zm0 0" fill="#d8625e"/><path d="m445.800781 339.875c0 12.1875-9.882812 22.070312-22.070312 22.070312s-22.070313-9.882812-22.070313-22.070312 9.882813-22.070312 22.070313-22.070312 22.070312 9.882812 22.070312 22.070312zm0 0" fill="#5496ce"/><path d="m88.28125 273.667969c-4.875 0-8.828125-3.953125-8.828125-8.828125v-44.136719c0-4.875 3.953125-8.828125 8.828125-8.828125s8.828125 3.953125 8.828125 8.828125v44.136719c0 4.875-3.953125 8.828125-8.828125 8.828125zm0 0" fill="#586270"/><path d="m61.800781 291.324219c0 4.875-3.953125 8.828125-8.828125 8.828125h-34.78125c-.707031-5.867188-.707031-11.792969 0-17.65625h34.78125c4.875 0 8.828125 3.953125 8.828125 8.828125zm0 0" fill="#586270"/><path d="m158.902344 300.152344h-35.308594c-4.875 0-8.828125-3.953125-8.828125-8.828125s3.953125-8.828125 8.828125-8.828125h35.308594c4.875 0 8.828125 3.953125 8.828125 8.828125s-3.953125 8.828125-8.828125 8.828125zm0 0" fill="#586270"/><path d="m88.28125 370.769531c-4.875 0-8.828125-3.949219-8.828125-8.824219v-35.3125c0-4.875 3.953125-8.828124 8.828125-8.828124s8.828125 3.953124 8.828125 8.828124v35.3125c0 4.875-3.953125 8.824219-8.828125 8.824219zm0 0" fill="#586270"/><path d="m194.214844 211.875h123.585937v61.792969c0 9.75-7.90625 17.65625-17.65625 17.65625h-88.277343c-9.75 0-17.652344-7.90625-17.652344-17.65625zm0 0" fill="#a5b4b4"/><path d="m237.492188 25.972656c-4.226563-14-22.785157-20.785156-41.457032-15.152344-18.667968 5.632813-30.378906 21.550782-26.152344 35.554688 4.222657 14.003906 22.785157 20.785156 41.453126 15.152344 18.671874-5.632813 30.378906-21.550782 26.15625-35.554688zm0 0" fill="#fe9189"/></svg>