<svg height="511pt" viewBox="-17 0 511 511.73713" width="511pt" xmlns="http://www.w3.org/2000/svg"><path d="m141.820312 423.019531v66.648438c0 12.1875-9.878906 22.070312-22.066406 22.070312-12.191406 0-22.070312-9.882812-22.070312-22.070312v-66.207031h39.722656c1.484375-.011719 2.960938-.160157 4.414062-.441407zm0 0" fill="#2c3e50"/><path d="m141.820312 379.765625v-79.890625h-88.273437v12.886719l-35.398437 35.488281c-12.605469 12.644531-16.351563 31.636719-9.492188 48.121094s22.972656 27.210937 40.828125 27.179687l48.199219-.089843h39.722656c1.484375-.011719 2.960938-.160157 4.414062-.441407 10.285157-2.089843 17.679688-11.132812 17.679688-21.628906 0-10.492187-7.394531-19.539063-17.679688-21.625zm-81.65625-.441406c-1.78125.007812-3.394531-1.050781-4.089843-2.691407-.695313-1.644531-.332031-3.539062.914062-4.8125l33.191407-33.191406c1.273437-1.25 3.171874-1.609375 4.8125-.914062 1.640624.695312 2.703124 2.308594 2.691406 4.089844v37.519531zm0 0" fill="#285680"/><path d="m141.820312 362.019531v17.746094c-.53125-.015625-1.0625-.074219-1.589843-.175781-.929688-.179688-1.875-.269532-2.824219-.265625h-39.722656v-17.65625h39.722656c1.476562.027343 2.953125.144531 4.414062.351562zm0 0" fill="#2c3e50"/><path d="m161.417969 261.917969-19.597657 10.328125-.351562.261718-2.914062 1.503907c-8.628907 4.53125-19.296876 1.210937-23.835938-7.417969-1.339844-2.527344-2.039062-5.347656-2.027344-8.207031 0-1.960938.359375-3.90625 1.058594-5.738281 1.355469-4.289063 4.378906-7.847657 8.386719-9.886719l19.683593-10.417969 1.414063-.707031zm0 0" fill="#fdd7ad"/><path d="m195.40625 243.996094-8.566406 4.503906-25.421875 13.417969-18.183594-30.28125 17.476563-9.269531-18.890626-18.890626v28.867188l-19.683593 10.417969c-4.007813 2.039062-7.03125 5.597656-8.386719 9.886719-.699219 1.832031-1.058594 3.777343-1.058594 5.738281-.011718 2.859375.6875 5.679687 2.027344 8.207031 4.539062 8.628906 15.207031 11.949219 23.835938 7.417969l2.914062-1.503907.351562.355469v27.011719h-88.273437v-107.433594l-40.078125-40.164062c-8.25-8.269532-12.886719-19.476563-12.890625-31.160156-.96875-23.929688 1.410156-47.878907 7.0625-71.152344 1.636719-5.863282 3.582031-11.640625 5.828125-17.300782l33.367188 16.683594c-3.414063 7.859375-6.101563 16.015625-8.03125 24.363282-2.867188 15.835937-3.84375 31.957031-2.914063 48.023437-.007813 2.015625.785156 3.953125 2.207031 5.386719l23.832032 23.746094c2.738281 2.796874 6.09375 4.914062 9.800781 6.175781l-.53125 1.589843 22.6875 37.871094c.8125 1.316406 2.25 2.121094 3.796875 2.121094s2.984375-.804688 3.796875-2.121094l22.683593-37.871094h3.089844c9.324219.007813 18.265625 3.6875 24.894532 10.242188l47.40625 46.960938c3.996093 3.953124 5.875 9.570312 5.054687 15.132812-.820313 5.558594-4.238281 10.398438-9.203125 13.027344zm0 0" fill="#cc4b4c"/><path d="m124.164062 158.632812-22.683593 37.871094c-.8125 1.316406-2.25 2.121094-3.796875 2.121094s-2.984375-.804688-3.796875-2.121094l-22.6875-37.871094.53125-1.589843c2.851562 1.0625 5.871093 1.601562 8.914062 1.589843zm0 0" fill="#f09372"/><g fill="#fdd7ad"><path d="m62.109375 15.007812c.792969 9.625-8.300781 19.597657-12.359375 27.808594-1.058594 2.117188-2.03125 4.324219-2.914062 6.53125l-33.367188-16.683594c2-5.210937 4.515625-10.207031 7.503906-14.917968 5.117188-8.035156 13.769532-17.6562502 24.097656-17.74218775 8.695313-.13281225 16.070313 6.36328175 17.039063 15.00390575zm0 0"/><path d="m141.820312 92.425781c0 21.941407-17.785156 39.726563-39.722656 39.726563-21.941406 0-39.726562-17.785156-39.726562-39.726563 0-21.9375 17.785156-39.722656 39.726562-39.722656 21.9375 0 39.722656 17.785156 39.722656 39.722656zm0 0"/><path d="m380.164062 101.253906c.027344 16.484375-10.175781 31.257813-25.597656 37.078125-4.496094 1.773438-9.289062 2.671875-14.125 2.644531-16.8125.042969-31.820312-10.539062-37.429687-26.390624-1.53125-4.277344-2.308594-8.789063-2.292969-13.332032 0-21.9375 17.785156-39.722656 39.722656-39.722656s39.722656 17.785156 39.722656 39.722656zm0 0"/></g><path d="m417.769531 364.316406 57.824219 100.191406c5.996094 10.546876 2.355469 23.957032-8.152344 30.023438-10.503906 6.0625-23.9375 2.511719-30.074218-7.953125l-62.054688-107.609375zm0 0" fill="#f09372"/><path d="m283.0625 385.945312v103.722657c0 12.1875-9.878906 22.070312-22.070312 22.070312-12.1875 0-22.066407-9.882812-22.066407-22.070312v-118.289063zm0 0" fill="#f09372"/><path d="m431.542969 358.136719c-3.707031 1.765625-8.386719 3.882812-13.773438 6.179687-13.789062 5.875-27.980469 10.769532-42.457031 14.652344-35.699219 10.84375-73.652344 11.910156-109.90625 3.089844-2.117188-.617188-4.234375-1.234375-6.355469-2.027344-10.386719-3.441406-20.292969-8.1875-29.484375-14.125l-.085937-.089844-8.5625-6.53125c-2.105469-1.582031-3.390625-4.023437-3.511719-6.652344-.117188-2.628906.941406-5.175781 2.890625-6.941406l31.867187-28.957031c18.453126-16.78125 25.867188-42.535156 19.15625-66.558594l-9.972656-35.488281c14.652344-14.121094 36.105469-7.855469 44.578125-4.589844 2.363281.816406 4.960938.59375 7.152344-.617187 12.984375-6.113281 28.261719-4.691407 39.898437 3.707031-.101562.617188-.070312 1.25.089844 1.855469l6.355469 22.597656 9.53125 34.074219 7.945313 8.917968 57.378906 63.644532c1.859375 2.066406 2.636718 4.886718 2.097656 7.613281-.535156 2.726563-2.328125 5.042969-4.832031 6.246094zm0 0" fill="#cc4b4c"/><path d="m431.894531 224.664062-5.738281 48.816407c-.652344 5.816406-4.148438 10.929687-9.328125 13.652343-5.179687 2.722657-11.375 2.699219-16.535156-.058593-6.5-3.523438-10.179688-10.667969-9.269531-18.007813l.089843-.441406 1.410157-11.917969 2.738281-23.480469c.488281-3.78125-1.554688-7.4375-5.03125-9.003906l-31.074219-14.390625c-1.257812-.566406-2.710938-.511719-3.921875.144531-1.214844.660157-2.046875 1.847657-2.257813 3.210938-11.636718-8.398438-26.914062-9.820312-39.898437-3.707031-2.191406 1.210937-4.789063 1.433593-7.152344.617187-8.472656-3.265625-29.925781-9.53125-44.578125 4.589844l-3.355468-11.828125c-1.875-6.683594-3.40625-13.460937-4.589844-20.304687l-25.160156-145.566407c-1.433594-9.644531 5.191406-18.640625 14.832031-20.125.882812-.089843 1.765625-.175781 2.558593-.175781 8.773438.019531 16.226563 6.425781 17.566407 15.09375l23.660156 131.707031c.671875 4.449219 3.226563 8.394531 7.011719 10.828125s8.433594 3.121094 12.761718 1.882813l29.570313-8.648438c6.152344-1.753906 12.726563-1.25 18.539063 1.410157l45.550781 21.011718 16.417969 7.589844c10.386718 4.804688 16.507812 15.738281 15.183593 27.101562zm0 0" fill="#fdd7ad"/></svg>