<svg height="512" viewBox="0 0 59 58" width="512" xmlns="http://www.w3.org/2000/svg"><g id="002---Disco-Ball" fill="none"><path id="Shape" d="m24 13.8c-.5522847 0-1-.4477153-1-1v-1.8c.0045913-2.96379858 1.8752007-5.60348084 4.67-6.59.5024753-.12879075 1.020009.14800828 1.1918316.63744211.1718225.48943383-.0591169 1.02899471-.5318316 1.24255789-1.9950183.70693272-3.3287869 2.59343427-3.33 4.71v1.8c0 .5522847-.4477153 1-1 1z" fill="#95a5a5"/><path id="Shape" d="m36 13.8c-.5522847 0-1-.4477153-1-1v-1.8c-.0039307-2.11030708-1.3323772-3.99093925-3.32-4.7-.5246705-.17673113-.8067311-.74532949-.63-1.27.1767311-.5246705.7453295-.80673111 1.27-.63 2.802202.9843652 4.6781489 3.62993141 4.68 6.6v1.8c0 .5522847-.4477153 1-1 1z" fill="#95a5a5"/><path id="Shape" d="m53 34.38c-.3486574-12.4832247-10.5947605-22.407476-23.082754-22.3576758-12.4879934.0498002-22.65461909 10.0554544-22.90370464 22.5410627-.24908556 12.4856084 9.51038784 22.8887845 21.98645864 23.4366131 13.42.75 24.59-10.79 24-23.62z" fill="#f3d55b"/><path id="Shape" d="m30.82 58c5.64-.49 9.83-4.72 12.32-9.83 5-2.45 9.63-6.94 9.84-12.52-.3349785 12.128941-10.0343608 21.9114859-22.16 22.35z" fill="#e57e25"/><path id="Shape" d="m53 34.38c-.28-5.18-4.11-9.73-9.84-12.52-2.71-5.58-7.09-9.35-12.09-9.82 12.0318831.5557422 21.597197 10.2998878 21.93 22.34z" fill="#e57e25"/><path id="Shape" d="m30 58c-5.91 0-10.53-4.48-13.14-9.86 2.7660017 1.313785 5.722628 2.1811971 8.76 2.57 1.1 4.49 2.65 7.29 4.38 7.29z" fill="#f0c419"/><path id="Shape" d="m43.14 21.86c-2.7660017-1.313785-5.722628-2.1811971-8.76-2.57-1.1-4.49-2.65-7.29-4.38-7.29 5.91 0 10.53 4.48 13.14 9.86z" fill="#f29c1f"/><path id="Shape" d="m30 12c-1.73 0-3.28 2.8-4.38 7.29-3.037372.3888029-5.9939983 1.256215-8.76 2.57 2.63-5.41 7.25-9.86 13.14-9.86z" fill="#f0c419"/><path id="Shape" d="m34.38 50.71c-2.38 9.73-6.38 9.72-8.76 0 2.9069777.3900011 5.8530223.3900011 8.76 0z" fill="#f3d55b"/><path id="Shape" d="m34.38 19.29c-2.9073063-.3850479-5.8526937-.3850479-8.76 0 2.38-9.73 6.38-9.72 8.76 0z" fill="#f3d55b"/><path id="Shape" d="m16.86 48.14c-5.4-2.62-9.86-7.25-9.86-13.14 0 1.73 2.8 3.28 7.29 4.38.3888029 3.037372 1.256215 5.9939983 2.57 8.76z" fill="#f9eab0"/><path id="Shape" d="m35.81 40.81c-.2022145 3.3338524-.6805198 6.6451971-1.43 9.9-2.9069777.3900011-5.8530223.3900011-8.76 0-.7494802-3.2548029-1.2277855-6.5661476-1.43-9.9 3.8691367.2549909 7.7508633.2549909 11.62 0z" fill="#f0c419"/><path id="Shape" d="m45.71 39.38c-.3888029 3.037372-1.256215 5.9939983-2.57 8.76-2.7660017 1.313785-5.722628 2.1811971-8.76 2.57.7494802-3.2548029 1.2277855-6.5661476 1.43-9.9 3.3338524-.2022145 6.6451971-.6805198 9.9-1.43z" fill="#e57e25"/><path id="Shape" d="m53 35.16c0 5.78-4.63 10.44-9.85 13 1.313785-2.7660017 2.1811971-5.722628 2.57-8.76 4.34-1.09 7.1-2.57 7.28-4.24z" fill="#f29c1f"/><path id="Shape" d="m16.86 21.86c-1.313785 2.7660017-2.1811971 5.722628-2.57 8.76-4.49 1.1-7.29 2.65-7.29 4.38 0-5.91 4.48-10.53 9.86-13.14z" fill="#f9eab0"/><path id="Shape" d="m35.81 29.19c-3.8691367-.2549909-7.7508633-.2549909-11.62 0 .2022145-3.3338524.6805198-6.6451971 1.43-9.9 2.9073063-.3850479 5.8526937-.3850479 8.76 0 .7494802 3.2548029 1.2277855 6.5661476 1.43 9.9z" fill="#f0c419"/><path id="Shape" d="m45.71 30.62c-3.2548029-.7494802-6.5661476-1.2277855-9.9-1.43-.2022145-3.3338524-.6805198-6.6451971-1.43-9.9 3.037372.3888029 5.9939983 1.256215 8.76 2.57 1.313785 2.7660017 2.1811971 5.722628 2.57 8.76z" fill="#e57e25"/><path id="Shape" d="m53 35c0-1.73-2.8-3.28-7.29-4.38-.3888029-3.037372-1.256215-5.9939983-2.57-8.76 5.35 2.61 9.86 7.23 9.86 13.14z" fill="#f29c1f"/><path id="Shape" d="m45.71 39.38c.3850479-2.9073063.3850479-5.8526937 0-8.76 9.71 2.38 9.74 6.38 0 8.76z" fill="#e57e25"/><path id="Shape" d="m45.71 39.38c-3.2548029.7494802-6.5661476 1.2277855-9.9 1.43.2549909-3.8691367.2549909-7.7508633 0-11.62 3.3338524.2022145 6.6451971.6805198 9.9 1.43.3850479 2.9073063.3850479 5.8526937 0 8.76z" fill="#f0c419"/><path id="Shape" d="m35.81 40.81c-3.8691367.2549909-7.7508633.2549909-11.62 0-.2549909-3.8691367-.2549909-7.7508633 0-11.62 3.8691367-.2549909 7.7508633-.2549909 11.62 0 .2549909 3.8691367.2549909 7.7508633 0 11.62z" fill="#f29c1f"/><path id="Shape" d="m24.19 40.81c-3.3338524-.2022145-6.6451971-.6805198-9.9-1.43-.3850479-2.9073063-.3850479-5.8526937 0-8.76 3.2548029-.7494802 6.5661476-1.2277855 9.9-1.43-.2549909 3.8691367-.2549909 7.7508633 0 11.62z" fill="#f9eab0"/><path id="Shape" d="m14.29 39.38c-9.73-2.38-9.72-6.38 0-8.76-.3850479 2.9073063-.3850479 5.8526937 0 8.76z" fill="#f3d55b"/><path id="Shape" d="m30 9c-1.1045695 0-2-.8954305-2-2v-6c0-.55228475.4477153-1 1-1h2c.5522847 0 1 .44771525 1 1v6c0 1.1045695-.8954305 2-2 2z" fill="#7f8c8d"/><path id="Shape" d="m5 7c5 0 6-7 6-7s1 7 6 7c-5 0-6 7-6 7s-1-7-6-7z" fill="#f9eab0"/><path id="Shape" d="m50 52.75c3.75 0 4.5-5.25 4.5-5.25s.75 5.25 4.5 5.25c-3.75 0-4.5 5.25-4.5 5.25s-.75-5.25-4.5-5.25z" fill="#f9eab0"/><g fill="#e57e25"><path id="Shape" d="m4 21c-.55228475 0-1-.4477153-1-1v-6c0-.5522847.44771525-1 1-1s1 .4477153 1 1v6c0 .5522847-.44771525 1-1 1z"/><path id="Shape" d="m7 18h-6c-.55228475 0-1-.4477153-1-1s.44771525-1 1-1h6c.55228475 0 1 .4477153 1 1s-.44771525 1-1 1z"/><path id="Shape" d="m4 21c-.55228475 0-1-.4477153-1-1v-6c0-.5522847.44771525-1 1-1s1 .4477153 1 1v6c0 .5522847-.44771525 1-1 1z"/><path id="Shape" d="m7 18h-6c-.55228475 0-1-.4477153-1-1s.44771525-1 1-1h6c.55228475 0 1 .4477153 1 1s-.44771525 1-1 1z"/></g><path id="Shape" d="m34.38 50.71c3.037372-.3888029 5.9939983-1.256215 8.76-2.57-2.59 5.32-7.22 9.86-13.14 9.86 1.73 0 3.28-2.8 4.38-7.29z" fill="#f29c1f"/></g></svg>