<?xml version="1.0" encoding="iso-8859-1"?>
<!-- Generator: Adobe Illustrator 19.0.0, SVG Export Plug-In . SVG Version: 6.00 Build 0)  -->
<svg version="1.1" id="Capa_1" xmlns="http://www.w3.org/2000/svg" xmlns:xlink="http://www.w3.org/1999/xlink" x="0px" y="0px"
	 viewBox="0 0 495.899 495.899" style="enable-background:new 0 0 495.899 495.899;" xml:space="preserve">
<g>
	<path style="fill:#E64C3C;" d="M393.469,47.242V34.356h8.533V17.29c-0.027-9.414-7.652-17.039-17.067-17.067h-51.2
		c-6.676,0.031-12.731,3.923-15.531,9.984C194.724-26.275,63.869,37.845,17.035,157.782s5.946,255.764,121.474,312.61
		s255.345,15.789,321.795-94.496S497.715,122.814,393.469,47.242z"/>
	<g>
		<path style="fill:#FAC176;" d="M359.336,367.156v34.133c0.012,17.301-12.939,31.867-30.123,33.877h-0.171
			c-1.273,0.17-2.556,0.256-3.84,0.256H103.336c-9.056,0.012-17.746-3.58-24.15-9.984c-6.404-6.404-9.996-15.093-9.984-24.149
			l0-34.133H359.336z"/>
		<path style="fill:#FAC176;" d="M357.202,222.09c-7.801-30.143-34.997-51.198-66.133-51.2h-153.6
			c-18.113-0.024-35.491,7.161-48.298,19.968c-12.808,12.808-19.992,30.186-19.968,48.298c0.014,4.707,3.826,8.52,8.533,8.533
			h273.067c4.707-0.014,8.52-3.826,8.533-8.533C359.325,233.401,358.609,227.67,357.202,222.09z M143.528,219.615
			c-3.365,3.3-8.752,3.3-12.117,0c-3.3-3.365-3.3-8.752,0-12.117c3.35-3.325,8.758-3.315,12.095,0.022
			C146.843,210.857,146.853,216.265,143.528,219.615z M194.728,211.082c-3.365,3.3-8.752,3.3-12.117,0
			c-3.3-3.365-3.3-8.752,0-12.117c3.35-3.325,8.758-3.315,12.095,0.022C198.043,202.324,198.053,207.732,194.728,211.082z
			 M245.928,219.615c-3.365,3.3-8.752,3.3-12.117,0c-3.3-3.365-3.3-8.752,0-12.117c3.35-3.325,8.758-3.315,12.095,0.022
			C249.243,210.857,249.253,216.265,245.928,219.615z M297.128,211.082c-3.365,3.3-8.752,3.3-12.117,0
			c-3.3-3.365-3.3-8.752,0-12.117c3.35-3.325,8.758-3.315,12.095,0.022C300.443,202.324,300.453,207.732,297.128,211.082z"/>
	</g>
	<path style="fill:#71C285;" d="M436.136,375.69v8.533c-0.043,28.259-22.941,51.157-51.2,51.2h-51.2
		c-1.511,0.002-3.021-0.083-4.523-0.256c17.184-2.011,30.135-16.576,30.123-33.877v-25.6H436.136z"/>
	<path style="fill:#805333;" d="M402.002,17.29v17.067h-85.333V17.29c-0.028-2.446,0.497-4.867,1.535-7.083
		c2.8-6.061,8.855-9.953,15.531-9.984h51.2C394.35,0.25,401.975,7.875,402.002,17.29z"/>
	<path style="fill:#71C285;" d="M436.136,187.956v34.133h-78.933c-7.801-30.143-34.997-51.198-66.133-51.2h-5.547
		c1.97-5.734,4.978-11.056,8.875-15.701l26.88-32.171c2.538-3.074,3.926-6.936,3.925-10.923V34.356h68.267v77.739
		c-0.001,3.986,1.387,7.849,3.925,10.923l26.88,32.171C431.939,164.388,436.136,175.983,436.136,187.956z"/>
	<path style="fill:#4C8056;" d="M436.136,222.09v153.6h-76.8v-8.533h-17.067v-34.133h8.533c14.138,0,25.6-11.462,25.6-25.6
		c0-14.138-11.462-25.6-25.6-25.6h-8.533V247.69h8.533c4.707-0.014,8.52-3.826,8.533-8.533c-0.01-5.755-0.727-11.486-2.133-17.067
		H436.136z"/>
	<rect x="86.269" y="333.023" style="fill:#71C285;" width="256" height="34.133"/>
	<path style="fill:#805333;" d="M256.936,333.023h-179.2c-14.138,0-25.6-11.462-25.6-25.6c0-14.138,11.462-25.6,25.6-25.6h145.067
		L256.936,333.023z"/>
	<polygon style="fill:#F3D55B;" points="342.269,247.69 342.269,281.823 291.069,281.823 256.936,333.023 222.802,281.823 
		86.269,281.823 86.269,247.69 	"/>
	<g>
		<path style="fill:#805333;" d="M376.402,307.423c-0.021,14.13-11.47,25.579-25.6,25.6h-93.867l34.133-51.2h59.733
			c6.792-0.009,13.309,2.685,18.112,7.488C373.717,294.114,376.411,300.631,376.402,307.423z"/>
		<path style="fill:#805333;" d="M146.002,213.556c-0.014,3.45-2.096,6.556-5.282,7.879c-3.187,1.323-6.856,0.606-9.31-1.82
			c-3.3-3.365-3.3-8.752,0-12.117c2.441-2.462,6.129-3.201,9.331-1.872C143.943,206.955,146.023,210.089,146.002,213.556z"/>
		<path style="fill:#805333;" d="M197.202,205.023c-0.014,3.45-2.096,6.556-5.282,7.879c-3.187,1.323-6.856,0.606-9.31-1.82
			c-3.3-3.365-3.3-8.752,0-12.117c2.441-2.462,6.129-3.201,9.331-1.872C195.143,198.422,197.223,201.556,197.202,205.023z"/>
		<path style="fill:#805333;" d="M248.402,213.556c-0.014,3.45-2.096,6.556-5.282,7.879c-3.187,1.323-6.856,0.606-9.31-1.82
			c-3.3-3.365-3.3-8.752,0-12.117c2.441-2.462,6.129-3.201,9.331-1.872C246.343,206.955,248.423,210.089,248.402,213.556z"/>
		<path style="fill:#805333;" d="M299.602,205.023c-0.014,3.45-2.096,6.556-5.282,7.879c-3.187,1.323-6.856,0.606-9.31-1.82
			c-3.3-3.365-3.3-8.752,0-12.117c2.441-2.462,6.129-3.201,9.331-1.872C297.543,198.422,299.623,201.556,299.602,205.023z"/>
	</g>
	<g>
		<path style="fill:#71C285;" d="M427.602,341.556h-25.6c-4.713,0-8.533-3.82-8.533-8.533s3.82-8.533,8.533-8.533h25.6
			c4.713,0,8.533,3.82,8.533,8.533S432.315,341.556,427.602,341.556z"/>
		<path style="fill:#71C285;" d="M427.602,273.29h-25.6c-4.713,0-8.533-3.82-8.533-8.533s3.82-8.533,8.533-8.533h25.6
			c4.713,0,8.533,3.82,8.533,8.533S432.315,273.29,427.602,273.29z"/>
	</g>
</g>
<g>
</g>
<g>
</g>
<g>
</g>
<g>
</g>
<g>
</g>
<g>
</g>
<g>
</g>
<g>
</g>
<g>
</g>
<g>
</g>
<g>
</g>
<g>
</g>
<g>
</g>
<g>
</g>
<g>
</g>
</svg>
