<svg height="512pt" viewBox="0 0 512 512.01502" width="512pt" xmlns="http://www.w3.org/2000/svg"><path d="m405.722656 111.949219c-7.78125 8.777343-14.726562 18.265625-20.742187 28.335937l-22.769531-5.375-12.355469-16.429687c6.648437-12.738281 14.605469-24.75 23.746093-35.839844 4.15625 5.113281 16.082032.546875 21.996094 5.925781 5.015625 4.5625 3.761719 19.09375 10.125 23.382813zm0 0" fill="#a5a5a4"/><path d="m323.804688 123.132812c5.132812-8.285156 16.011718-10.84375 24.300781-5.710937l40.785156 25.253906c3.980469 2.46875 6.820313 6.414063 7.890625 10.972657 1.070312 4.5625.285156 9.359374-2.179688 13.339843l-29.6875 47.925781-29.457031-33.386718c-7.160156-17.894532-6.570312-32.527344-24.460937-37.78125zm0 0" fill="#5e5f62"/><path d="m433.441406 84.9375c-9.902344 8.292969-19.167968 17.324219-27.71875 27.011719-6.160156-4.15625-12-8.765625-17.476562-13.789063-5.257813-4.808594-10.15625-9.996094-14.65625-15.519531 9.46875-11.59375 19.957031-22.320313 31.339844-32.042969 3 5.605469 14.644531 5.605469 19.347656 11.476563 4.707031 5.867187 2.5 17.609375 9.164062 22.863281zm0 0" fill="#bdc3c7"/><path d="m464.25 62.074219c-10.714844 7-21.003906 14.636719-30.808594 22.863281-11.757812-9.371094-21.460937-21.0625-28.511718-34.339844 11.191406-9.496094 22.984374-18.253906 35.308593-26.21875 2.179688 6.59375 15.476563 8.15625 20.179688 15.359375 3.671875 5.613281-1.816407 16.84375 3.832031 22.335938zm0 0" fill="#a5a5a4"/><path d="m500.179688 41.238281c-12.34375 6.289063-24.339844 13.246094-35.929688 20.835938-10.933594-10.4375-19.171875-23.375-24.011719-37.695313 13-8.378906 26.570313-15.839844 40.609375-22.332031 10.769532-5.011719 23.566406-.507813 28.824219 10.144531 5.253906 10.65625 1.039063 23.554688-9.492187 29.046875zm0 0" fill="#bdc3c7"/><path d="m365.117188 215.320312-14.125-35.222656c-9.386719-23.460937-32.109376-38.84375-57.378907-38.839844h-216.453125c-25.269531-.003906-47.992187 15.378907-57.378906 38.839844l-14.125 35.222656c-3.71875 9.386719-5.6367188 19.386719-5.6484375 29.484376v231.898437c0 19.503906 15.8085935 35.3125 35.3085935 35.3125h300.140625c19.5 0 35.308594-15.808594 35.308594-35.3125v-231.898437c-.011719-10.097657-1.929687-20.097657-5.648437-29.484376zm-47.316407 14.210938h-264.828125c-4.875 0-8.828125-3.953125-8.828125-8.828125 0-24.375 19.761719-44.136719 44.140625-44.136719h194.207032c11.714843-.035156 22.960937 4.605469 31.246093 12.890625 8.285157 8.285157 12.925781 19.53125 12.890625 31.246094 0 2.34375-.929687 4.589844-2.585937 6.242187-1.65625 1.65625-3.902344 2.585938-6.242188 2.585938zm0 0" fill="#cc4b4c"/><path d="m185.386719 476.703125c19.863281 0 79.449219-3.652344 79.449219-58.445313-.984376-18.203124-9.21875-35.25-22.863282-47.335937-.183594-.179687-.460937-.214844-.683594-.085937-.222656.128906-.328124.386718-.261718.636718 2.136718 6.019532 7.113281 24.875-15.890625 24.875-7.945313 0-15.890625-3.65625-15.890625-18.265625s19.863281-29.226562 19.863281-51.144531c0-24.304688-15.007813-58.757812-43.695313-62.085938-.503906-.125-1.023437.125-1.242187.59375-.214844.472657-.066406 1.03125.359375 1.332032 7.253906 4.1875 12.015625 11.640625 12.765625 19.984375 0 43.828125-91.367187 58.4375-91.367187 131.53125.007812 54.757812 59.59375 58.410156 79.457031 58.410156zm0 0" fill="#802f34"/><path d="m185.386719 441.394531c-44.136719 0-44.136719-17.417969-44.136719-23.136719 0-20.535156 12.597656-33.296874 33.605469-50.054687-.625 3.257813-.941407 6.566406-.945313 9.878906 0 31.277344 20.703125 53.195313 50.441406 53.566407-5.417968 5.207031-16.429687 9.746093-38.964843 9.746093zm0 0" fill="#cc4b4c"/></svg>