<?xml version="1.0" encoding="iso-8859-1"?>
<!-- Generator: Adobe Illustrator 19.0.0, SVG Export Plug-In . SVG Version: 6.00 Build 0)  -->
<svg version="1.1" id="Layer_1" xmlns="http://www.w3.org/2000/svg" xmlns:xlink="http://www.w3.org/1999/xlink" x="0px" y="0px"
	 viewBox="0 0 511.901 511.901" style="enable-background:new 0 0 511.901 511.901;" xml:space="preserve">
<g>
	<path style="fill:#35495E;" d="M317.564,105.86H193.978l-26.483-26.483l-88.276,35.399c-4.29,1.562-7.68,23.455-9.816,27.489
		C51.439,176.163-30.172,341.221,11.9,413.828c11.149,19.244,36.793,24.311,55.305,11.979l30.243-20.18
		c34.163-22.784,74.302-34.94,115.368-34.94h85.937c41.048,0,81.17,12.147,115.332,34.922l30.508,20.339
		c18.335,12.226,43.405,6.93,54.705-11.979c43.891-73.419-39.618-238.045-56.505-271.713c-2.048-4.078-5.658-25.918-9.94-27.48
		l-88.806-35.399L317.564,105.86z"/>
	<g>
		<path style="fill:#1D2B38;" d="M344.047,308.895c0,14.627-11.855,26.483-26.483,26.483s-26.483-11.855-26.483-26.483
			s11.855-26.483,26.483-26.483S344.047,294.267,344.047,308.895"/>
		<path style="fill:#1D2B38;" d="M397.012,167.653c-4.193,0-8.095,1.059-11.617,2.79c1.73-3.522,2.79-7.424,2.79-11.617
			c0-14.627-11.855-26.483-26.483-26.483c-14.627,0-26.483,11.855-26.483,26.483c0,4.193,1.059,8.095,2.79,11.617
			c-3.522-1.73-7.424-2.79-11.617-2.79c-14.627,0-26.483,11.855-26.483,26.483s11.855,26.483,26.483,26.483
			c4.193,0,8.095-1.059,11.617-2.79c-1.73,3.522-2.79,7.424-2.79,11.617c0,14.627,11.855,26.483,26.483,26.483
			c14.627,0,26.483-11.855,26.483-26.483c0-4.193-1.059-8.095-2.79-11.617c3.522,1.73,7.424,2.79,11.617,2.79
			c14.627,0,26.483-11.855,26.483-26.483S411.64,167.653,397.012,167.653"/>
		<path style="fill:#1D2B38;" d="M220.461,308.895c0,14.627-11.855,26.483-26.483,26.483s-26.483-11.855-26.483-26.483
			s11.855-26.483,26.483-26.483S220.461,294.267,220.461,308.895"/>
		<polygon style="fill:#1D2B38;" points="193.978,194.076 176.323,176.483 158.668,176.483 158.668,158.828 140.951,141.172 
			123.357,158.828 123.357,176.483 105.702,176.483 88.047,194.2 105.702,211.793 123.357,211.793 123.357,229.448 141.074,247.103 
			158.668,229.448 158.668,211.793 176.323,211.793 		"/>
	</g>
	<path style="fill:#4482C3;" d="M335.219,194.136c0,4.873-3.955,8.828-8.828,8.828c-4.873,0-8.828-3.955-8.828-8.828
		s3.955-8.828,8.828-8.828C331.265,185.309,335.219,189.263,335.219,194.136"/>
	<path style="fill:#F0C419;" d="M370.53,158.826c0,4.873-3.955,8.828-8.828,8.828s-8.828-3.955-8.828-8.828
		c0-4.873,3.955-8.828,8.828-8.828S370.53,153.953,370.53,158.826"/>
	<path style="fill:#71C285;" d="M370.53,229.447c0,4.873-3.955,8.828-8.828,8.828s-8.828-3.955-8.828-8.828
		c0-4.873,3.955-8.828,8.828-8.828S370.53,224.574,370.53,229.447"/>
	<path style="fill:#E64C3C;" d="M405.84,194.136c0,4.873-3.955,8.828-8.828,8.828c-4.873,0-8.828-3.955-8.828-8.828
		s3.955-8.828,8.828-8.828C401.885,185.309,405.84,189.263,405.84,194.136"/>
	<g>
		<path style="fill:#1D2B38;" d="M282.254,141.171h-52.965c-9.746,0-17.655-7.91-17.655-17.655V105.86h88.276v17.655
			C299.909,133.261,291.999,141.171,282.254,141.171"/>
		<path style="fill:#1D2B38;" d="M397.012,370.688c0,9.304,1.386,18.273,3.831,26.801c4.502,2.534,8.916,5.235,13.241,8.121
			l30.508,20.339c18.335,12.226,43.405,6.93,54.705-11.979c20.542-34.357,13.18-88.7-2.207-140.235
			c-0.989-0.026-1.969-0.15-2.975-0.15C440.488,273.584,397.012,317.06,397.012,370.688"/>
		<path style="fill:#1D2B38;" d="M17.426,273.584c-0.821,0-1.607,0.106-2.419,0.124C-0.353,325.367-7.83,379.771,11.9,413.828
			c11.149,19.244,36.793,24.311,55.305,11.979l30.243-20.18c4.326-2.878,8.748-5.588,13.241-8.121
			c2.454-8.527,3.84-17.505,3.84-26.818C114.53,317.06,71.054,273.584,17.426,273.584"/>
	</g>
	<g>
		<path style="fill:#35495E;" d="M61.564,353.033c0,4.873-3.955,8.828-8.828,8.828s-8.828-3.955-8.828-8.828
			c0-4.873,3.955-8.828,8.828-8.828S61.564,348.16,61.564,353.033"/>
		<path style="fill:#35495E;" d="M467.633,353.033c0,4.873-3.955,8.828-8.828,8.828c-4.873,0-8.828-3.955-8.828-8.828
			c0-4.873,3.955-8.828,8.828-8.828C463.678,344.205,467.633,348.16,467.633,353.033"/>
	</g>
</g>
<g>
</g>
<g>
</g>
<g>
</g>
<g>
</g>
<g>
</g>
<g>
</g>
<g>
</g>
<g>
</g>
<g>
</g>
<g>
</g>
<g>
</g>
<g>
</g>
<g>
</g>
<g>
</g>
<g>
</g>
</svg>
