<?xml version="1.0" encoding="iso-8859-1"?>
<!-- Generator: Adobe Illustrator 19.0.0, SVG Export Plug-In . SVG Version: 6.00 Build 0)  -->
<svg version="1.1" id="Capa_1" xmlns="http://www.w3.org/2000/svg" xmlns:xlink="http://www.w3.org/1999/xlink" x="0px" y="0px"
	 viewBox="0 0 512.076 512.076" style="enable-background:new 0 0 512.076 512.076;" xml:space="preserve">
<g transform="translate(-1)">
	<path style="fill:#3D324C;" d="M460.072,97.141v397.241c0.029,9.739,7.917,17.626,17.655,17.655h17.655
		c9.739-0.029,17.626-7.917,17.655-17.655V97.141H460.072z"/>
	<path style="fill:#7D6599;" d="M2.715,143.839c-0.53-6.091-0.883-11.917-1.059-17.655c-1.047-21.209-0.84-42.462,0.618-63.647
		C116.503,0.038,257.038,0.038,257.038,0.038s140.535,0,254.764,62.499c1.458,21.185,1.665,42.438,0.618,63.647
		c-0.177,5.738-0.53,11.564-1.059,17.655c-4.767,63.647-22.334,146.45-78.654,177.699c-96.574,53.495-122.968,62.499-140.535,80.331
		c-1.465,1.414-3.061,2.685-4.767,3.796c-18.358,12.359-42.375,12.359-60.734,0c-1.706-1.111-3.302-2.382-4.767-3.796
		c-17.567-17.832-43.961-26.836-140.535-80.331C25.049,290.289,7.482,207.486,2.715,143.839"/>
	<g>
		<path style="fill:#3D324C;" d="M468.9,166.305c0,0-35.31-9.71-61.793-19.421s-97.103-19.421-114.759,87.393
			c0,0,44.138,29.131,105.931,0S468.9,166.305,468.9,166.305z"/>
		<path style="fill:#3D324C;" d="M45.176,166.305c0,0,35.31-9.71,61.793-19.421s97.103-19.421,114.759,87.393
			c0,0-44.138,29.131-105.931,0S45.176,166.305,45.176,166.305z"/>
	</g>
	<g>
		<path style="fill:#F0C419;" d="M343.275,256.108c-19.57,0.359-38.864-4.648-55.79-14.477c-2.916-1.922-4.425-5.383-3.849-8.828
			c7.318-44.235,24.258-74.372,50.37-89.591c23.541-12.389,51.268-14.077,76.138-4.634c25.838,9.472,60.751,19.103,61.096,19.2
			c4.553,1.252,7.315,5.865,6.268,10.47c-0.397,1.766-10.522,43.379-75.467,73.984C383.728,251.172,363.651,255.912,343.275,256.108
			z M302.156,229.626c12.403,5.994,46.919,18.132,92.363-3.302c40.28-18.988,56.497-42.231,62.561-54.148
			c-12.359-3.575-34.622-10.222-53.01-16.967c-19.931-7.648-42.177-6.444-61.166,3.31c-20.215,11.741-33.907,35.646-40.748,71.036
			V229.626z"/>
		<path style="fill:#F0C419;" d="M170.801,256.108c-20.376-0.191-40.452-4.925-58.765-13.859
			c-64.945-30.605-75.034-72.227-75.467-73.984c-1.047-4.604,1.714-9.218,6.268-10.469c0.344-0.097,35.31-9.71,61.096-19.2
			c24.87-9.441,52.596-7.753,76.138,4.634c26.112,15.219,43.052,45.356,50.37,89.591c0.576,3.445-0.932,6.906-3.849,8.828
			C209.663,251.47,190.369,256.471,170.801,256.108z M56.996,172.176c6.038,11.917,22.281,35.16,62.561,54.148
			c28.701,15.043,62.681,16.231,92.363,3.231c-6.85-35.399-20.542-59.295-40.748-71.071c-18.988-9.761-41.236-10.965-61.166-3.31
			C91.618,161.909,69.39,168.556,56.996,172.176z"/>
		<path style="fill:#F0C419;" d="M512.42,126.184c-0.177,5.738-0.53,11.564-1.059,17.655c-0.177,0-0.441-0.088-0.618-0.088
			c-28.187-3.563-55.629-11.578-81.302-23.746c-22.863-12.094-87.834-37.782-112.993-11.034
			c-11.211,11.917-21.716,22.157-31.25,30.455c-16.08,14.256-40.285,14.218-56.32-0.088c-10.952-9.588-21.383-19.754-31.25-30.455
			c-25.07-26.659-90.13-0.971-112.993,11.123c-25.673,12.168-53.116,20.183-81.302,23.746c-0.177,0-0.441,0.088-0.618,0.088
			c-0.53-6.091-0.883-11.917-1.059-17.655c25.869-3.322,51.064-10.649,74.681-21.716c3.884-2.03,94.72-49.523,134.179-7.68
			c9.479,10.294,19.497,20.077,30.014,29.308c9.407,8.387,23.608,8.387,33.015,0c10.496-9.222,20.514-18.974,30.014-29.219
			c39.459-42.019,130.295,5.561,134.179,7.592C461.356,115.535,486.551,122.862,512.42,126.184z"/>
		<path style="fill:#F0C419;" d="M304.883,325.317c-8.121,3.584-16.375,6.991-24.523,10.116c-3.007,1.084-5.194,3.708-5.716,6.862
			c-0.522,3.154,0.701,6.343,3.198,8.339c2.497,1.996,5.878,2.485,8.839,1.28c8.422-3.231,16.949-6.744,25.335-10.443
			c4.461-1.97,6.481-7.183,4.511-11.644C314.557,325.367,309.344,323.347,304.883,325.317z"/>
		<path style="fill:#F0C419;" d="M353.161,301.129c-5.114,2.895-10.437,5.785-15.969,8.669c-2.844,1.432-4.697,4.284-4.849,7.465
			s1.422,6.197,4.117,7.892c2.695,1.696,6.095,1.808,8.897,0.294c5.703-2.984,11.196-5.962,16.481-8.933
			c4.249-2.396,5.751-7.783,3.354-12.032C362.797,300.235,357.41,298.733,353.161,301.129z"/>
		<path style="fill:#F0C419;" d="M400.301,271.363c-4.776,3.372-9.975,6.93-15.572,10.593c-4.078,2.681-5.211,8.161-2.529,12.239
			c2.681,4.078,8.161,5.211,12.239,2.529c5.773-3.778,11.14-7.451,16.066-10.929c3.986-2.808,4.94-8.316,2.132-12.301
			c-2.808-3.986-8.316-4.94-12.301-2.132H400.301z"/>
		<path style="fill:#F0C419;" d="M450.565,241.772c-3.358-3.53-8.94-3.672-12.473-0.318c-0.053,0.044-4.661,4.414-13.241,11.361
			c-3.716,3.091-4.256,8.595-1.21,12.349c3.045,3.753,8.543,4.36,12.333,1.36c9.181-7.45,14.062-12.085,14.265-12.279
			C453.771,250.891,453.917,245.308,450.565,241.772z"/>
		<path style="fill:#F0C419;" d="M233.715,334.789c-8.254-3.16-16.499-6.568-24.523-10.116c-4.461-1.97-9.674,0.05-11.644,4.511
			c-1.97,4.461,0.05,9.674,4.511,11.644c8.289,3.663,16.772,7.177,25.335,10.443c2.961,1.205,6.342,0.715,8.839-1.28
			c2.497-1.996,3.72-5.185,3.198-8.339C238.909,338.497,236.723,335.872,233.715,334.789z"/>
		<path style="fill:#F0C419;" d="M176.875,309.153c-5.514-2.89-10.834-5.776-15.96-8.66c-4.246-2.396-9.631-0.896-12.028,3.35
			s-0.896,9.631,3.35,12.028c5.297,2.975,10.787,5.967,16.49,8.934c2.809,1.585,6.258,1.512,8.997-0.19
			c2.739-1.702,4.332-4.762,4.155-7.982C181.702,313.413,179.783,310.545,176.875,309.153z"/>
		<path style="fill:#F0C419;" d="M129.347,281.311c-5.597-3.663-10.787-7.212-15.563-10.593c-2.581-1.82-5.937-2.124-8.804-0.798
			c-2.867,1.326-4.808,4.08-5.094,7.225c-0.285,3.145,1.129,6.204,3.711,8.024c4.926,3.531,10.302,7.159,16.075,10.946
			c4.081,2.681,9.562,1.547,12.244-2.534c2.681-4.081,1.547-9.562-2.534-12.244L129.347,281.311z"/>
		<path style="fill:#F0C419;" d="M75.984,240.801c-2.29-2.171-5.564-2.956-8.589-2.059c-3.025,0.897-5.342,3.34-6.078,6.409
			c-0.736,3.069,0.222,6.297,2.511,8.468c0.203,0.185,5.085,4.811,14.265,12.253c2.435,2.103,5.822,2.715,8.839,1.596
			c3.017-1.119,5.186-3.791,5.661-6.973c0.475-3.183-0.819-6.371-3.378-8.323C80.636,245.198,76.028,240.846,75.984,240.801z"/>
	</g>
</g>
<g>
</g>
<g>
</g>
<g>
</g>
<g>
</g>
<g>
</g>
<g>
</g>
<g>
</g>
<g>
</g>
<g>
</g>
<g>
</g>
<g>
</g>
<g>
</g>
<g>
</g>
<g>
</g>
<g>
</g>
</svg>
