<?xml version="1.0" encoding="UTF-8"?>
<svg xmlns="http://www.w3.org/2000/svg" xmlns:xlink="http://www.w3.org/1999/xlink" width="512" height="512" viewBox="0 0 58 39" version="1.1"><!-- Generator: Sketch 51.3 (57544) - http://www.bohemiancoding.com/sketch --><title>074 - Motocross Bike</title><desc>Created with Sketch.</desc><defs/><g id="Page-1" stroke="none" stroke-width="1" fill="none" fill-rule="evenodd"><g id="074---Motocross-Bike" fill-rule="nonzero"><path d="M50.39,12.1 C48.23,12.34 44.68,13.12 44.71,15.68 L41.984,13.5 L42.57,10.84 C43.92,10.49 47.49,9.8 50.53,11.14 C50.7422366,11.2271767 50.8679022,11.4476156 50.834792,11.6746572 C50.8016818,11.9016987 50.6182942,12.0770674 50.39,12.1 Z" id="Shape" fill="#4482C3"/><path d="M19,29.5 C18.9848095,34.2378952 15.4705058,38.2354662 10.7736141,38.8576324 C6.07672247,39.4797985 1.6428189,36.5350738 0.39460162,31.9645338 C-0.853615661,27.3939939 1.46802083,22.6043271 5.82915694,20.7527402 C10.190293,18.9011534 15.2486891,20.5575148 17.67,24.63 L15.608,26.4 L13.8,26.08 C12.154185,24.0102039 9.268372,23.4046251 6.92935158,24.6382158 C4.59033115,25.8718066 3.46027871,28.5953381 4.23888168,31.1224986 C5.01748465,33.6496591 7.48432096,35.2650108 10.1120152,34.9683866 C12.7397094,34.6717624 14.7843627,32.5471365 14.98,29.91 L17.1,27.117 L18.94,28.43 C18.9802006,28.7852465 19.0002327,29.1424862 19,29.5 Z" id="Shape" fill="#2C2F38"/><path d="M23.02,26.89 L18.94,28.43 L14.98,29.91 L11.28,31.3 C10.2444661,31.6893607 9.0893608,31.1655339 8.70000006,30.13 C8.31063932,29.0944661 8.83446613,27.9393608 9.87,27.55 L13.8,26.08 L17.67,24.63 L20.83,23.45 L24.016,22.797 L23.02,26.89 Z" id="Shape" fill="#95A5A5"/><path d="M41.41,18.09 L35.24,20.29 L34,17 C34.7,16.65 37.92,15.83 37.61,15.19 L39.78,14.41 L41.41,18.09 Z" id="Shape" fill="#7F8C8D"/><path d="M9.6,17 L5.28,17 C5.09754763,16.9985612 4.91851223,16.9503593 4.76,16.86 L1.03,14.62 C0.852242073,14.5153425 0.757001324,14.312264 0.790195478,14.1086732 C0.823389632,13.9050824 0.978204371,13.7427738 1.18,13.7 C3.755959,13.2004893 6.37627836,12.9659338 9,13 L10.167,14.708 C9.987,15.058 10.885,15.45 11.125,15.75 L9.6,17 Z" id="Shape" fill="#4482C3"/><path d="M32,11 L30.292,12.417 C29.5201552,12.7834699 28.7811204,13.215382 28.083,13.708 L21.458,17.917 L9,13 L18.53,12.21 C20.1723992,12.0687958 21.7988785,11.7809826 23.39,11.35 L30.07,9.53 C30.5289206,9.40273079 31.0209542,9.49745966 31.3998165,9.78602318 C31.7786788,10.0745867 32.0007474,10.5237595 32,11 Z" id="Shape" fill="#A5A5A4"/><path d="M37,17 L35.24,20.29 L30.58,28.99 C30.223876,29.6151194 29.5594428,30.0007962 28.84,30 L26.1,30 C25.4145155,30.0001014 24.7767342,29.649133 24.41,29.07 L23.02,26.89 L20.83,23.45 L18.62,19.97 C18.9,19.9 19.15,17.72 19.28,17.45 L19.8,16.4 L30,13 L34.52,15.29 L34.53,15.29 L37,17 Z" id="Shape" fill="#35495E"/><path d="M29,27 L26,27 C25.4477153,27 25,26.5522847 25,26 C25,25.4477153 25.4477153,25 26,25 L29,25 C29.5522847,25 30,25.4477153 30,26 C30,26.5522847 29.5522847,27 29,27 Z" id="Shape" fill="#BDC3C7"/><path d="M58,29.5 C58.0000611,34.0015151 54.8408233,37.8850915 50.4335302,38.8012826 C46.0262372,39.7174737 41.5809818,37.4147246 39.7870095,33.286129 C37.9930372,29.1575334 39.3429119,24.3366634 43.02,21.74 L45.82,23.551 L44.7,25.53 C42.7977276,27.3539116 42.4565764,30.2708492 43.8866354,32.4844944 C45.3166943,34.6981396 48.116001,35.5862788 50.5606768,34.6019751 C53.0053527,33.6176714 54.4082458,31.0375939 53.9054217,28.4506146 C53.4025976,25.8636354 51.1353907,23.9969051 48.5,24 C48.4663553,23.9983613 48.4326539,24.0017315 48.4,24.01 L45.537,22.06 L46.7,20.17 C47.2933485,20.0570625 47.8959989,20.0001455 48.5,20 C53.7467051,20 58,24.2532949 58,29.5 Z" id="Shape" fill="#2C2F38"/><path d="M48.95,30.19 C48.4646952,30.4051699 47.9137553,30.418569 47.4185643,30.2272452 C46.9233734,30.0359215 46.5245631,29.6555734 46.31,29.17 L44.7,25.53 L43.02,21.74 L41.41,18.09 L39.78,14.41 L36.54,7.08 C36.4259209,6.82655259 36.2125327,6.63124809 35.95,6.54 L29.89,4.44 C28.9678647,4.12085 28.4106556,3.18283406 28.5714777,2.22037546 C28.7322999,1.25791686 29.5641997,0.552014225 30.54,0.55 C30.7647652,0.547462062 30.9882074,0.584702437 31.2,0.66 L37.41,2.81 L38.08,3.04 C38.8572527,3.31759983 39.4887036,3.89853464 39.83,4.65 L40.15,5.38 L42.57,10.84 L44.71,15.68 L44.71,15.69 L46.7,20.17 L48.4,24.01 L49.97,27.55 C50.1851699,28.0353048 50.198569,28.5862447 50.0072452,29.0814357 C49.8159215,29.5766266 49.4355734,29.9754369 48.95,30.19 Z" id="Shape" fill="#95A5A5"/><path d="M21,16 L19.8,18.4 L19.28,19.45 C19.1052581,19.7860948 18.7588004,19.997819 18.38,20 L12.48,20 C12.175728,19.9985972 11.8886474,19.8587374 11.7,19.62 L9.6,17 L8.4,15.5 C8.15611858,15.1959942 8.11307181,14.7772666 8.29,14.43 L9,13 L21,16 Z" id="Shape" fill="#285680"/><path d="M37,17 L34.53,16.29 L34.52,16.29 L30,15 L19.8,18.4 L21,16 L27.28,12.41 C27.7566581,12.1386746 28.268014,11.9334594 28.8,11.8 L32,11 L37.18,14.7 C37.3592466,14.827939 37.5064257,14.9956547 37.61,15.19 C37.9387574,15.8584395 37.6662901,16.666908 37,17 Z" id="Shape" fill="#4482C3"/></g></g></svg>
