<svg height="512" viewBox="0 0 60 42" width="512" xmlns="http://www.w3.org/2000/svg"><g id="066---Repair-Vehicle" fill="none"><path id="Shape" d="m59 42h-58c-.55228475 0-1-.4477153-1-1s.44771525-1 1-1h58c.5522847 0 1 .4477153 1 1s-.4477153 1-1 1z" fill="#7f8c8d"/><path id="Shape" d="m46 16h8c2.7614237 0 5 2.2385763 5 5v8l-54 3-4-13v-15c0-2.209139 1.790861-4 4-4h29.68c2.6506926.00210487 5.0732982 1.49978598 6.26 3.87 2.609 5.201 1.472 2.53 5.06 12.13z" fill="#3b97d3"/><path id="Rectangle-path" d="m1 25h4v4h-4z" fill="#f29c1f"/><path id="Shape" d="m5 21v4h-4v-6h2c1.10320187.0032948 1.9967052.8967981 2 2z" fill="#e64c3c"/><path id="Shape" d="m59 21h-3c-1.1045695 0-2 .8954305-2 2s.8954305 2 2 2h3z" fill="#f9eab0"/><path id="Shape" d="m13.61 16.61-2.82 2.82c-.6770183.675232-.94237709 1.660357-.6961182 2.584288.2462589.9239311.9667228 1.646301 1.89 1.8950001.9232772.248699 1.9090999-.0140561 2.5861182-.6892881l2.83-2.82z" fill="#285680"/><path id="Shape" d="m26.09 10.89-9.103 9.097-2.82-2.82 9.083-9.087z" fill="#95a5a5"/><path id="Shape" d="m25.4945277 5.34605363h1.357c1.1045695 0 2 .8954305 2 2v2.76799997c0 .2761424-.2238576.5-.5.5h-4.357c-.2761424 0-.5-.2238576-.5-.5v-2.76799997c0-1.1045695.8954305-2 2-2z" fill="#bdc3c7" transform="matrix(-.707 -.707 .707 -.707 39.037 32.13)"/><path id="Shape" d="m25.29 19.45c-.3877236.3900375-.3877236 1.0199625 0 1.41l2.73 2.73c-1.402709.8238318-3.1649594.7143621-4.4549262-.2767368-1.2899668-.9910988-1.8497324-2.6656653-1.4150738-4.2332632l-7.23-7.23c-1.5661576.4270151-3.2350806-.1348563-4.2240988-1.4221149-.98901812-1.28725865-1.10197644-3.04459864-.2859012-4.4478851l2.73 2.73c.3921222.38936075 1.0256393.38712217 1.415-.005s.3871222-1.02563925-.005-1.415l-2.73-2.73c1.4037641-.82283808 3.1660735-.71333566 4.4571777.27695009 1.2911043.99028575 1.8536695 2.66397796 1.4228223 4.23304991l7.23 7.23c1.569072-.4308472 3.2427642.131718 4.2330499 1.4228223.9902858 1.2911042 1.0997882 3.0534136.2769501 4.4571777l-2.73-2.73c-.3930079-.3899779-1.0269921-.3899779-1.42 0z" fill="#bdc3c7"/><path id="Shape" d="m59 29v3c0 2.209139-1.790861 4-4 4h-50c-2.209139 0-4-1.790861-4-4v-3z" fill="#95a5a5"/><circle id="Oval" cx="13" cy="34" fill="#464f5d" r="6"/><circle id="Oval" cx="13" cy="34" fill="#ecf0f1" r="3"/><circle id="Oval" cx="47" cy="34" fill="#464f5d" r="6"/><circle id="Oval" cx="47" cy="34" fill="#ecf0f1" r="3"/><path id="Shape" d="m19 23c-.2651948-.0000566-.5195073-.1054506-.707-.293l-7-7c-.3789722-.3923789-.3735524-1.0160848.0121814-1.4018186s1.0094397-.3911536 1.4018186-.0121814l7 7c.2859079.2859943.3714219.7160366.216678 1.0896546-.1547439.3736179-.5192821.6172591-.923678.6173454z" fill="#2980ba"/><path id="Shape" d="m45.26 12.51-2.25-4.51h-6.01c-1.1000487.0108387-1.9891613.89995132-2 2v4c.0032948 1.1032019.8967981 1.9967052 2 2h13c-2.41 0-3.67-1.33-4.74-3.49z" fill="#84b5cb"/><path id="Shape" d="m46 16h-9c-1.1032019-.0032948-1.9967052-.8967981-2-2v-4c.0127557-.73939039.4212309-1.41509233 1.07-1.77 2.76.69 9.93 2.93 9.93 7.77z" fill="#9fc9d3"/></g></svg>